<?xml version="1.0" encoding="iso-8859-1"?>
<!-- Generator: Adobe Illustrator 19.0.0, SVG Export Plug-In . SVG Version: 6.00 Build 0)  -->
<svg version="1.1" id="Layer_1" xmlns="http://www.w3.org/2000/svg" xmlns:xlink="http://www.w3.org/1999/xlink" x="0px" y="0px"
	 viewBox="0 0 473.931 473.931" style="enable-background:new 0 0 473.931 473.931;" xml:space="preserve">
<circle style="fill:#344E5D;" cx="236.966" cy="236.966" r="236.966"/>
<g>
	<path style="fill:#FFFFFF;" d="M392.731,168.634c0.243-1.781,1.407-3.315,1.407-5.167c0-28.213-30.514-51.094-68.167-51.094
		c-4.924,0-9.309,1.366-13.957,2.118c-11.285-14.997-31.876-25.549-56.501-25.549c-31.884,0-57.219,17.343-63.206,39.951
		c-30.922,6.136-54.248,26.32-54.248,51.457c0,23.805,20.797,43.408,49.257,50.671c9.643,21.702,36.082,37.605,68.197,37.605
		c29.137,0,53.833-13.048,65.496-31.569c7.487,2.499,15.671,3.981,24.389,3.981c33.384,0,60.467-20.314,60.467-45.406
		C405.865,185.326,400.462,176.259,392.731,168.634z"/>
	<path style="fill:#FFFFFF;" d="M213.026,174.153c0.146-1.081,0.853-2.017,0.853-3.139c0-17.141-18.537-31.042-41.41-31.042
		c-2.993,0-5.654,0.834-8.479,1.291c-6.851-9.111-19.36-15.517-34.319-15.517c-19.367,0-34.761,10.529-38.394,24.262
		c-18.784,3.734-32.954,15.989-32.954,31.259c0,14.458,12.632,26.364,29.915,30.78c5.86,13.182,21.919,22.843,41.429,22.843
		c17.699,0,32.699-7.925,39.782-19.177c4.554,1.515,9.519,2.417,14.817,2.417c20.277,0,36.733-12.344,36.733-27.581
		C221.003,184.289,217.718,178.789,213.026,174.153z"/>
	<path style="fill:#FFFFFF;" d="M286.971,228.622c-0.123,0.898-0.707,1.68-0.707,2.608c0,14.252,15.412,25.803,34.428,25.803
		c2.485,0,4.7-0.692,7.046-1.07c5.695,7.573,16.097,12.902,28.531,12.902c16.101,0,28.901-8.756,31.917-20.176
		c15.614-3.102,27.393-13.291,27.393-25.983c0-12.022-10.503-21.919-24.868-25.594c-4.876-10.956-18.222-18.986-34.443-18.986
		c-14.716,0-27.184,6.585-33.07,15.94c-3.787-1.257-7.914-2.009-12.322-2.009c-16.857,0-30.536,10.26-30.536,22.926
		C280.336,220.195,283.068,224.771,286.971,228.622z"/>
</g>
<polygon style="fill:#F1EB75;" points="302.843,340.994 280.842,322.742 344.511,291.24 287.73,278.626 237.987,315.154 
	256.625,320.89 213.767,354.614 230.425,358.711 194.676,384.964 270.331,369.937 256.745,358.663 "/>
<g>
</g>
<g>
</g>
<g>
</g>
<g>
</g>
<g>
</g>
<g>
</g>
<g>
</g>
<g>
</g>
<g>
</g>
<g>
</g>
<g>
</g>
<g>
</g>
<g>
</g>
<g>
</g>
<g>
</g>
</svg>
