<?xml version="1.0" encoding="iso-8859-1"?>
<!-- Generator: Adobe Illustrator 19.0.0, SVG Export Plug-In . SVG Version: 6.00 Build 0)  -->
<svg version="1.1" id="Layer_1" xmlns="http://www.w3.org/2000/svg" xmlns:xlink="http://www.w3.org/1999/xlink" x="0px" y="0px"
	 viewBox="0 0 498.4 498.4" style="enable-background:new 0 0 498.4 498.4;" xml:space="preserve">
<circle style="fill:#06C67C;" cx="253.6" cy="249.3" r="226.4"/>
<path style="fill:#0FB57E;" d="M93.6,89.3c88.8-88.8,232-88.8,320.8,0c88,88,88,232,0,320"/>
<g>
	<path style="fill:#EEF4A6;" d="M116.8,189.3c0-2.4-2.4-4-4.8-4H4.8c-2.4,0-4.8,1.6-4.8,4l0,0c0.8,2.4,2.4,4,4.8,4H112
		C114.4,193.3,116.8,191.7,116.8,189.3L116.8,189.3z"/>
	<path style="fill:#EEF4A6;" d="M116.8,309.3c0-2.4-2.4-4-4.8-4H4.8c-2.4,0-4.8,1.6-4.8,4l0,0c0.8,2.4,2.4,4,4.8,4H112
		C114.4,313.3,116.8,311.7,116.8,309.3L116.8,309.3z"/>
	<path style="fill:#EEF4A6;" d="M176,438.1c-34.4,0.8-63.2-26.4-64.8-60.8c-0.8-28,21.6-52,49.6-52.8c23.2-0.8,42.4,17.6,43.2,40.8
		c0.8,19.2-14.4,35.2-33.6,36c-16,0.8-29.6-12-29.6-28c0-3.2,2.4-5.6,5.6-6.4c3.2,0,5.6,2.4,6.4,5.6c0,9.6,8,16.8,17.6,16.8
		c12.8,0,23.2-11.2,22.4-24c-0.8-16.8-14.4-30.4-31.2-29.6c-21.6,0.8-39.2,19.2-38.4,40.8c0.8,28,24,50.4,52.8,49.6
		c36-0.8,64-31.2,63.2-67.2c-1.6-45.6-36.8-79.2-82.4-77.6c-3.2,0-8.8-5.6-8.8-8.8c0-3.2,5.6-7.2,8.8-7.2
		c52-1.6,92.8,40.8,94.4,93.6C252,401.3,218.4,436.5,176,438.1z"/>
	<path style="fill:#EEF4A6;" d="M162.4,273.3c0,3.2-2.4,8-5.6,8h-136c-3.2,0-8-2.4-8-8l0,0c0-5.6,4.8-8,8.8-8h136
		C159.2,265.3,162.4,270.1,162.4,273.3L162.4,273.3z"/>
	<path style="fill:#EEF4A6;" d="M176,60.5c-34.4-0.8-63.2,26.4-64.8,60.8c-0.8,28,21.6,52,49.6,52.8c23.2,0.8,42.4-17.6,43.2-40.8
		c0.8-19.2-14.4-35.2-33.6-36c-16-0.8-29.6,12-29.6,28c0,3.2,2.4,5.6,5.6,6.4c3.2,0,5.6-2.4,6.4-5.6c0-9.6,8-16.8,17.6-16.8
		c12.8,0,23.2,11.2,22.4,24c-0.8,16.8-14.4,30.4-31.2,29.6c-21.6-0.8-39.2-19.2-38.4-40.8c0.8-28,24-50.4,52.8-49.6
		c36,0.8,64,31.2,63.2,67.2c-1.6,45.6-36.8,79.2-82.4,77.6c-3.2,0-8.8,5.6-8.8,8.8s5.6,7.2,8.8,7.2c52,1.6,92.8-40.8,94.4-93.6
		C252,97.3,218.4,62.1,176,60.5z"/>
	<path style="fill:#EEF4A6;" d="M162.4,225.3c0-3.2-2.4-8-5.6-8h-136c-3.2,0-8,3.2-8,8l0,0c0,5.6,5.6,8,8.8,8h135.2
		C159.2,233.3,162.4,228.5,162.4,225.3L162.4,225.3z"/>
	<circle style="fill:#EEF4A6;" cx="87.2" cy="154.1" r="5.6"/>
	<circle style="fill:#EEF4A6;" cx="87.2" cy="344.5" r="5.6"/>
	<circle style="fill:#EEF4A6;" cx="215.2" cy="249.3" r="5.6"/>
</g>
<path style="fill:#DCF9F6;" d="M250.4,228.5c0-45.6,36.8-83.2,82.4-83.2c32.8,0,60.8,18.4,74.4,45.6c3.2-0.8,6.4-0.8,9.6-0.8
	c21.6,0,39.2,17.6,39.2,39.2c0,0.8-0.8,1.6-0.8,2.4c28.8,3.2,43.2,28,43.2,58.4v4c0,32.8-24.8,58.4-56.8,58.4H308
	c-32.8,0-57.6-26.4-57.6-58.4v-18.4C250.4,260.5,250.4,244.5,250.4,228.5z"/>
<path style="fill:#BDE5E1;" d="M250.4,239.7c0-46.4,36.8-83.2,83.2-83.2c32.8,0,60.8,18.4,74.4,45.6c2.4-0.8,5.6-0.8,8.8-0.8
	c21.6,0,39.2,17.6,39.2,39.2c0,0.8-0.8,1.6-0.8,2.4c28.8,3.2,43.2,16.8,43.2,47.2v4c0,32.8-24.8,58.4-56.8,58.4H308
	c-32.8,0-57.6-26.4-57.6-58.4v-18.4C250.4,260.5,250.4,255.7,250.4,239.7z"/>
<path style="fill:#C8EDE8;" d="M442.4,353.3H308c-32.8,0-57.6-26.4-57.6-58.4v-18.4c0-15.2,0-20.8,0-36"/>
<g>
	<path style="fill:#DCF9F6;" d="M368.8,240.5c2.4-0.8,4.8-1.6,8-1.6c15.2,0,28,12.8,28,28c0,2.4-0.8,5.6-1.6,8
		C401.6,257.3,387.2,242.9,368.8,240.5z"/>
	<path style="fill:#DCF9F6;" d="M320.8,214.9c3.2-1.6,6.4-3.2,10.4-3.2c20.8-4,40.8,9.6,44,30.4c0.8,4,0.8,7.2,0,11.2
		C368,229.3,345.6,214.1,320.8,214.9z"/>
</g>
<g>
	<path style="fill:#B1DDD9;" d="M469.6,286.1c0,1.6,1.6,2.4,2.4,2.4s2.4-1.6,2.4-2.4c0-1.6-1.6-2.4-2.4-2.4S469.6,284.5,469.6,286.1
		z"/>
	<circle style="fill:#B1DDD9;" cx="464.8" cy="265.3" r="4"/>
	<circle style="fill:#B1DDD9;" cx="416.8" cy="225.3" r="1.6"/>
</g>
<g>
	<path style="fill:#DCF9F6;" d="M373.6,204.5c0,2.4,1.6,4,4,4s4-1.6,4-4s-1.6-4-4-4C376,199.7,373.6,202.1,373.6,204.5z"/>
	<path style="fill:#DCF9F6;" d="M343.2,170.1c0,0.8,0.8,2.4,2.4,2.4c0.8,0,2.4-0.8,2.4-2.4c0-0.8-0.8-2.4-2.4-2.4
		C344,167.7,343.2,168.5,343.2,170.1z"/>
	<circle style="fill:#DCF9F6;" cx="326.4" cy="176.5" r="6.4"/>
</g>
<g>
</g>
<g>
</g>
<g>
</g>
<g>
</g>
<g>
</g>
<g>
</g>
<g>
</g>
<g>
</g>
<g>
</g>
<g>
</g>
<g>
</g>
<g>
</g>
<g>
</g>
<g>
</g>
<g>
</g>
</svg>
