<?xml version="1.0" encoding="iso-8859-1"?>
<!-- Generator: Adobe Illustrator 19.0.0, SVG Export Plug-In . SVG Version: 6.00 Build 0)  -->
<svg version="1.1" id="Layer_1" xmlns="http://www.w3.org/2000/svg" xmlns:xlink="http://www.w3.org/1999/xlink" x="0px" y="0px"
	 viewBox="0 0 511.985 511.985" style="enable-background:new 0 0 511.985 511.985;" xml:space="preserve">
<path style="fill:#FFCE54;" d="M191.916,195.948c-66.951,0-121.215-54.264-121.215-121.199c0-15.054,2.75-29.46,7.766-42.749
	C32.609,49.28,0,93.553,0,145.45c0,66.935,54.265,121.207,121.215,121.207c51.89,0,96.154-32.616,113.45-78.458
	C221.368,193.205,206.963,195.948,191.916,195.948z"/>
<path style="fill:#F6BB42;" d="M142.543,245.321c-66.951,0-121.215-54.264-121.215-121.207c0-28.038,9.531-53.85,25.515-74.388
	C18.344,71.905,0,106.536,0,145.45c0,66.935,54.265,121.207,121.215,121.207c38.905,0,73.529-18.343,95.717-46.842
	C196.4,235.798,170.589,245.321,142.543,245.321z"/>
<path style="fill:#CCD1D9;" d="M382.66,221.33c-37.28,0-70.872,15.78-94.481,41.014c-12.64-14.562-31.296-23.773-52.092-23.773
	c-38.093,0-68.967,30.882-68.967,68.982c0,0.563,0,1.141,0.016,1.719c-39.358,7.969-68.998,42.781-68.998,84.498
	c0,47.609,38.608,86.215,86.216,86.215h198.307c71.419,0,129.324-57.902,129.324-129.338
	C511.984,279.226,454.079,221.33,382.66,221.33z"/>
<path style="fill:#AAB2BC;" d="M462.813,249.164c17.438,22.039,27.844,49.89,27.844,80.169c0,71.404-57.904,129.309-129.325,129.309
	H163.026c-18.358,0-35.374-5.734-49.357-15.516c15.577,22.279,41.437,36.857,70.685,36.857h198.307
	c71.419,0,129.324-57.902,129.324-129.338C511.984,309.506,492.766,272.851,462.813,249.164z"/>
<g>
</g>
<g>
</g>
<g>
</g>
<g>
</g>
<g>
</g>
<g>
</g>
<g>
</g>
<g>
</g>
<g>
</g>
<g>
</g>
<g>
</g>
<g>
</g>
<g>
</g>
<g>
</g>
<g>
</g>
</svg>
