<?xml version="1.0" encoding="iso-8859-1"?>
<!-- Generator: Adobe Illustrator 19.0.0, SVG Export Plug-In . SVG Version: 6.00 Build 0)  -->
<svg version="1.1" id="Layer_1" xmlns="http://www.w3.org/2000/svg" xmlns:xlink="http://www.w3.org/1999/xlink" x="0px" y="0px"
	 viewBox="0 0 247.536 247.536" style="enable-background:new 0 0 247.536 247.536;" xml:space="preserve">
<g>
	<path style="fill:#1D1D1B;" d="M246.707,161.28c6.872,37.534-30.38,57.385-61.002,42.517c3.456,11.453-3.215,19.972-14.145,24.915
		c-10.006,4.461-18.968-0.322-23.428-9.082c-1.969,4.461-5.907,8.158-10.89,8.801c-3.777,0.482-9.122-2.13-10.609-5.867
		c-8.76,16.235-33.314,12.859-38.779-4.943c-5.626,4.38-13.623,4.862-18.526-1.648c-0.442-0.603-1.206-2.13-1.768-3.898
		c-4.179,9.725-15.552,16.315-25.839,11.373c-11.895-5.706-16.155-20.856-11.453-32.591c-13.02,2.532-27.326-1.648-29.979-16.516
		c-1.889-10.489,5.666-25.397,16.918-26.683c-20.655-19.008-15.552-53.688,8.6-67.914c11.815-6.952,28.17-7.957,41.472-3.335
		c-2.692-44.767,53.286-70.124,91.342-59.515c18.847,5.224,34.841,18.928,43.642,36.288c11.533,22.906,6.631,46.334-1.969,69.24
		C220.868,121.416,242.648,139.258,246.707,161.28z M229.467,197.608c10.689-8.76,14.788-22.022,12.337-35.323
		c-5.425-29.938-40.507-47.178-64.016-24.875c0.964,1.045,1.768,2.25,1.808,3.576c0,1.206-1.366,1.929-2.371,1.366
		c-1.527-0.924-2.21-2.813-3.376-4.139c-1.326-1.447-2.893-2.532-4.541-3.617c-1.206-0.764-0.442-2.934,1.005-2.371
		c1.246,0.442,2.331,1.085,3.416,1.768c1.206-3.657,3.295-7.153,3.416-11.091c0.12-4.943-3.295-8.841-7.033-11.614
		c-6.751-4.943-15.351-7.354-22.705-2.612c-0.04,0.201-0.04,0.402-0.08,0.603c-0.241,1.607-3.054,1.648-3.255,0
		c-0.844-5.907-0.482-12.136-2.693-17.762c-3.456-8.921-12.739-12.337-21.861-10.73c-15.512,2.733-24.232,14.547-27.889,28.894
		c1.648,0.482,3.175,1.326,3.777,2.934c0.322,0.884-0.522,1.808-1.366,1.808c-1.889,0-3.376-1.447-5.224-1.889
		c-2.25-0.563-4.34-0.241-6.55,0.201c-1.286,0.241-2.009-1.366-0.884-2.13c1.768-1.125,3.858-1.607,5.988-1.607
		C85.963,76.406,43.367,68.972,21.707,87.98c-18.526,16.235-16.356,42.958,0.201,59.435c1.326,1.286-0.482,3.777-2.009,2.612
		c0,0,0-0.04-0.04-0.04C8.366,152.68,1.012,166.223,5.473,177.273c4.501,11.172,16.315,10.81,26.402,10.006
		c1.447-0.121,1.929,1.648,1.206,2.612c-2.813,9.765-1.286,21.178,7.274,27.688c5.787,4.42,13.141,4.34,18.606-0.643
		c3.295-3.014,4.822-7.032,6.671-10.93c-1.447-0.563-2.773-1.246-3.858-2.009c-1.406-1.005-0.161-3.255,1.366-2.331
		c2.09,1.206,4.34,1.969,6.751,2.049c2.13,0.04,4.099-0.763,6.189-0.804c1.165,0,2.049,1.688,1.005,2.492
		c-2.09,1.688-4.943,2.009-7.716,1.567c0.563,7.274,6.59,9.042,18.204,5.264c0.965-1.165,3.215-0.563,3.456,0.884
		c3.416,19.53,26.281,19.972,33.957,3.215c0.804-1.728,3.134-0.964,3.617,0.522c0.643,0.04,1.246,0.402,1.447,1.125
		c0.522,2.25,0.563,4.42,2.813,5.787c1.808,1.125,4.179,0.924,6.148,0.201c3.697-1.366,6.068-4.581,7.595-8.037
		c-0.121-0.362-0.241-0.723-0.362-1.125c-0.402-1.406,1.567-2.773,2.572-1.487c0.08,0.08,0.161,0.201,0.241,0.281
		s0.121,0.201,0.201,0.281c2.291,3.054,3.938,6.631,6.751,9.162c4.702,4.3,10.529,3.496,15.753,0.683
		c3.295-1.808,7.113-4.139,9.162-7.354c2.773-4.3,2.17-9.082,1.768-13.904c-1.808,0.884-3.657,1.527-5.304,1.808
		c-1.567,0.281-2.25-1.969-0.683-2.451c1.889-0.643,3.657-1.447,5.305-2.532c0.281-0.362,0.683-0.603,1.125-0.723
		c1.849-1.447,3.014-3.456,4.782-4.943c1.045-0.844,2.893-0.08,2.451,1.447c-0.563,1.768-1.808,3.376-3.376,4.702
		C201.217,205.765,216.487,208.176,229.467,197.608z M196.033,122.902c13.422-36.931,11.332-78.402-28.25-97.772
		c-41.231-20.173-93.15,6.349-98.575,51.96c11.131,4.42,19.771,12.98,21.017,25.598c3.858-14.587,16.958-25.92,32.55-26.884
		c17.802-1.125,25.558,13.422,24.955,28.934c8.278-5.144,18.646-1.929,26.241,3.978c7.515,5.787,9.202,14.507,5.787,22.504
		C184.7,126.599,190.246,123.987,196.033,122.902z"/>
	<path style="fill:#CCECF9;" d="M241.804,162.284c2.451,13.301-1.648,26.563-12.337,35.323c-12.98,10.569-28.251,8.158-42.476,2.17
		c1.567-1.326,2.813-2.934,3.376-4.702c0.442-1.527-1.407-2.291-2.451-1.447c-1.768,1.487-2.934,3.496-4.782,4.943
		c-0.442,0.121-0.844,0.362-1.125,0.723c-1.648,1.085-3.416,1.889-5.305,2.532c-1.567,0.482-0.884,2.733,0.683,2.451
		c1.648-0.281,3.496-0.924,5.304-1.808c0.402,4.822,1.005,9.604-1.768,13.904c-2.049,3.215-5.867,5.546-9.162,7.354
		c-5.224,2.813-11.051,3.617-15.753-0.683c-2.813-2.532-4.461-6.108-6.751-9.162c-0.08-0.08-0.12-0.201-0.201-0.281
		s-0.161-0.201-0.241-0.281c-1.005-1.286-2.974,0.08-2.572,1.487c0.121,0.402,0.241,0.764,0.362,1.125
		c-1.527,3.456-3.898,6.671-7.595,8.037c-1.969,0.723-4.34,0.924-6.148-0.201c-2.25-1.366-2.291-3.536-2.813-5.787
		c-0.201-0.723-0.804-1.085-1.447-1.125c-0.482-1.487-2.813-2.25-3.617-0.522c-7.675,16.757-30.541,16.315-33.957-3.215
		c-0.241-1.447-2.492-2.049-3.456-0.884c-11.614,3.777-17.641,2.009-18.204-5.264c2.773,0.442,5.626,0.12,7.716-1.567
		c1.045-0.804,0.161-2.492-1.005-2.492c-2.09,0.04-4.059,0.844-6.189,0.804c-2.411-0.08-4.661-0.844-6.751-2.049
		c-1.527-0.924-2.773,1.326-1.366,2.331c1.085,0.763,2.411,1.447,3.858,2.009c-1.848,3.898-3.376,7.917-6.671,10.93
		c-5.465,4.983-12.819,5.063-18.606,0.643c-8.559-6.51-10.087-17.923-7.274-27.688c0.723-0.964,0.241-2.733-1.206-2.612
		c-10.087,0.804-21.901,1.165-26.402-10.006c-4.461-11.051,2.893-24.594,14.386-27.286c0.04,0,0.04,0.04,0.04,0.04
		c1.527,1.165,3.336-1.326,2.009-2.612c-16.556-16.476-18.726-43.2-0.201-59.435c21.66-19.008,64.257-11.573,65.663,21.017
		c-2.13,0-4.219,0.482-5.988,1.607c-1.125,0.763-0.402,2.371,0.884,2.13c2.21-0.442,4.3-0.764,6.55-0.201
		c1.849,0.442,3.335,1.889,5.224,1.889c0.844,0,1.688-0.924,1.366-1.808c-0.603-1.607-2.13-2.451-3.777-2.934
		c3.657-14.346,12.377-26.161,27.889-28.894c9.122-1.607,18.405,1.808,21.861,10.73c2.21,5.626,1.849,11.855,2.693,17.762
		c0.201,1.648,3.014,1.607,3.255,0c0.04-0.201,0.04-0.402,0.08-0.603c7.354-4.742,15.954-2.331,22.705,2.612
		c3.737,2.773,7.153,6.671,7.033,11.614c-0.121,3.938-2.21,7.434-3.416,11.091c-1.085-0.683-2.17-1.326-3.416-1.768
		c-1.447-0.563-2.21,1.607-1.005,2.371c1.648,1.085,3.215,2.17,4.541,3.617c1.165,1.326,1.848,3.215,3.376,4.139
		c1.005,0.563,2.371-0.161,2.371-1.366c-0.04-1.326-0.844-2.532-1.808-3.576C201.297,115.106,236.379,132.346,241.804,162.284z
		 M232.963,152.278c0.322,0.924,1.728,0.563,1.487-0.402c-1.085-4.501-4.581-8.198-9.042-9.524
		c-0.603-0.161-1.005,0.764-0.442,1.045C228.945,145.125,231.677,148.139,232.963,152.278z M229.467,157.301
		c0.362,0.964,1.889,0.603,1.567-0.442c-1.125-3.577-3.134-6.671-5.747-9.363c-0.683-0.723-1.728,0.321-1.085,1.045
		C226.534,151.113,228.181,154.086,229.467,157.301z M207.325,197.407c0.964-0.201,0.563-1.607-0.402-1.487
		c-3.335,0.522-6.631,0.161-9.765-1.085c-0.643-0.241-1.085,0.844-0.442,1.125C200.092,197.648,203.628,198.21,207.325,197.407z
		 M173.127,168.754c0.643-0.844-0.442-2.049-1.206-1.206c-1.929,2.13-3.697,4.34-5.505,6.59c-0.603,0.804,0.442,1.929,1.165,1.125
		C169.47,173.134,171.359,171.005,173.127,168.754z M115.179,217.62c0.964-0.643,0.12-2.09-0.924-1.567
		c-1.567,0.804-3.295,1.326-5.063,1.407c-1.165,0.08-1.206,1.849,0,1.849C111.402,219.348,113.29,218.826,115.179,217.62z
		 M113.692,222.161c0.362-0.563-0.442-1.125-0.924-0.723c-1.165,1.085-2.692,1.848-4.3,2.009c-0.764,0.04-1.527-0.04-2.25-0.241
		c0,0-2.532-0.965-1.808-1.407c0.522-0.281,0.08-1.005-0.482-0.804c-2.853,1.246,1.326,3.456,2.612,3.737
		C109.272,225.416,112.125,224.572,113.692,222.161z M113.371,96.179c0.603-0.804-0.643-1.728-1.326-1.045
		c-2.371,2.331-4.461,4.943-6.59,7.475c-0.764,0.964,0.563,2.331,1.366,1.366C109.071,101.443,111.402,98.952,113.371,96.179z
		 M105.093,95.737c0.603-0.683-0.322-1.607-1.005-1.005c-1.366,1.286-2.652,2.652-3.978,4.018c-0.643,0.683,0.362,1.728,1.045,1.045
		C102.481,98.469,103.847,97.143,105.093,95.737z M81.624,160.838c0.804,0.482,1.768-0.723,1.005-1.326
		c-1.688-1.326-2.853-3.054-3.416-5.144c-0.322-1.165-2.09-0.683-1.808,0.482C78.007,157.422,79.414,159.391,81.624,160.838z
		 M75.878,159.15c0.603,0.241,1.005-0.723,0.442-1.005c-2.933-1.487-4.903-4.26-4.903-7.595c0.04-0.884-1.286-0.884-1.326,0
		C70.011,154.368,72.221,157.904,75.878,159.15z M75.194,93.486c0.683-5.144-3.094-9.564-8.198-10.006
		c-0.844-0.08-1.085,1.366-0.201,1.527c4.019,0.563,6.992,4.22,6.992,8.278C73.788,94.089,75.074,94.29,75.194,93.486z
		 M47.627,213.159c0.964-0.281,0.563-1.688-0.402-1.487c-2.773,0.522-4.26-1.527-5.425-3.617c-0.201-0.442-0.924-0.362-1.045,0.12
		C40.072,211.833,44.573,214.043,47.627,213.159z M18.613,124.912c0.201-3.134,0.121-6.349,0.04-9.524
		c-0.04-1.125-1.728-1.125-1.768,0c-0.08,3.175-0.161,6.39,0.04,9.524C17.006,125.997,18.533,125.997,18.613,124.912z
		 M16.523,132.386c0.603,0.884,1.969,0.08,1.406-0.804c-2.491-4.019-3.938-8.318-4.862-12.9c-0.161-0.884-1.688-0.723-1.608,0.201
		C11.942,123.827,13.751,128.327,16.523,132.386z"/>
	<path style="fill:#1D1D1B;" d="M234.45,151.876c0.241,0.964-1.165,1.326-1.487,0.402c-1.286-4.139-4.019-7.153-7.997-8.881
		c-0.563-0.281-0.161-1.206,0.442-1.045C229.869,143.678,233.365,147.375,234.45,151.876z"/>
	<path style="fill:#1D1D1B;" d="M231.035,156.859c0.322,1.045-1.206,1.406-1.567,0.442c-1.286-3.215-2.934-6.189-5.264-8.76
		c-0.643-0.723,0.402-1.768,1.085-1.045C227.9,150.188,229.909,153.283,231.035,156.859z"/>
	<path style="fill:#1D1D1B;" d="M206.923,195.92c0.964-0.121,1.366,1.286,0.402,1.487c-3.697,0.804-7.233,0.241-10.609-1.447
		c-0.643-0.281-0.201-1.366,0.442-1.125C200.292,196.08,203.588,196.442,206.923,195.92z"/>
	<path style="fill:#FAC15C;" d="M167.782,25.131c39.583,19.37,41.673,60.841,28.25,97.772c-5.787,1.085-11.332,3.697-16.275,8.319
		c3.416-7.997,1.728-16.717-5.787-22.504c-7.595-5.907-17.963-9.122-26.241-3.978c0.603-15.512-7.153-30.059-24.955-28.934
		c-15.592,0.965-28.693,12.297-32.55,26.884c-1.246-12.618-9.886-21.178-21.017-25.598C74.632,31.48,126.552,4.957,167.782,25.131z
		 M193.943,62.343c0.161,0.844,1.567,0.643,1.527-0.201c-0.442-5.184-2.934-9.484-7.032-12.659
		c-0.563-0.402-1.206,0.482-0.723,0.924C191.09,53.582,193.139,57.802,193.943,62.343z M190.326,66.642
		c0.12,0.964,1.527,1.005,1.487,0c-0.121-3.295-1.165-6.229-3.094-8.881c-0.563-0.764-1.808-0.08-1.286,0.723
		C189.081,60.936,190.045,63.709,190.326,66.642z M151.105,51.412c0.402,0.522,1.286-0.161,0.924-0.723
		c-3.255-4.702-8.037-7.434-13.703-8.118c-0.723-0.08-0.884,1.125-0.201,1.246C143.269,44.661,147.81,47.434,151.105,51.412z
		 M147.408,80.265c0.402-3.858-2.532-7.675-6.39-8.198c-0.884-0.12-1.286,1.085-0.362,1.366c3.135,0.924,5.104,3.496,5.063,6.831
		C145.68,81.35,147.288,81.31,147.408,80.265z M94.524,47.795c0.924-0.402,0.281-1.849-0.643-1.567
		c-3.295,0.964-5.747,3.255-7.113,6.389c-0.482,1.125,1.165,2.13,1.688,1.005C89.702,50.89,91.831,48.921,94.524,47.795z
		 M86.607,45.585c0.683-0.844-0.362-1.929-1.206-1.206c-3.536,2.974-6.028,7.033-7.434,11.413c-0.362,1.085,1.366,1.848,1.849,0.804
		C81.584,52.577,83.875,49.001,86.607,45.585z"/>
	<path style="fill:#1D1D1B;" d="M195.47,62.142c0.04,0.844-1.366,1.045-1.527,0.201c-0.804-4.541-2.853-8.761-6.229-11.935
		c-0.482-0.442,0.161-1.326,0.723-0.924C192.537,52.658,195.028,56.958,195.47,62.142z"/>
	<path style="fill:#1D1D1B;" d="M191.813,66.642c0.04,1.005-1.366,0.964-1.487,0c-0.281-2.934-1.246-5.706-2.893-8.158
		c-0.522-0.804,0.723-1.487,1.286-0.723C190.648,60.414,191.693,63.347,191.813,66.642z"/>
	<path style="fill:#1D1D1B;" d="M171.921,167.549c0.764-0.844,1.849,0.362,1.206,1.206c-1.768,2.25-3.657,4.38-5.546,6.51
		c-0.723,0.804-1.768-0.322-1.165-1.125C168.224,171.889,169.992,169.679,171.921,167.549z"/>
	<path style="fill:#1D1D1B;" d="M152.029,50.689c0.362,0.563-0.522,1.246-0.924,0.723c-3.295-3.978-7.836-6.751-12.98-7.595
		c-0.683-0.12-0.522-1.326,0.201-1.246C143.992,43.254,148.774,45.987,152.029,50.689z"/>
	<path style="fill:#1D1D1B;" d="M141.019,72.067c3.858,0.522,6.791,4.34,6.39,8.198c-0.121,1.045-1.728,1.085-1.688,0
		c0.04-3.335-1.929-5.907-5.063-6.831C139.733,73.153,140.135,71.947,141.019,72.067z"/>
	<path style="fill:#1D1D1B;" d="M114.255,216.053c1.045-0.522,1.889,0.924,0.924,1.567c-1.889,1.205-3.778,1.728-5.988,1.688
		c-1.206,0-1.165-1.768,0-1.849C110.96,217.379,112.688,216.856,114.255,216.053z"/>
	<path style="fill:#1D1D1B;" d="M112.768,221.438c0.482-0.402,1.286,0.161,0.924,0.723c-1.567,2.411-4.42,3.255-7.153,2.572
		c-1.286-0.281-5.465-2.492-2.612-3.737c0.563-0.201,1.005,0.522,0.482,0.804c-0.723,0.442,1.808,1.407,1.808,1.407
		c0.723,0.201,1.487,0.281,2.25,0.241C110.076,223.286,111.603,222.523,112.768,221.438z"/>
	<path style="fill:#1D1D1B;" d="M112.045,95.134c0.683-0.683,1.929,0.241,1.326,1.045c-1.969,2.773-4.3,5.264-6.55,7.796
		c-0.804,0.964-2.13-0.402-1.366-1.366C107.584,100.077,109.674,97.465,112.045,95.134z"/>
	<path style="fill:#1D1D1B;" d="M104.088,94.732c0.683-0.603,1.607,0.321,1.005,1.005c-1.246,1.406-2.612,2.733-3.938,4.059
		c-0.683,0.683-1.688-0.362-1.045-1.045C101.436,97.384,102.722,96.018,104.088,94.732z"/>
	<path style="fill:#1D1D1B;" d="M93.881,46.228c0.924-0.281,1.567,1.165,0.643,1.567c-2.692,1.125-4.822,3.094-6.068,5.827
		c-0.522,1.125-2.17,0.121-1.688-1.005C88.134,49.483,90.586,47.193,93.881,46.228z"/>
	<path style="fill:#1D1D1B;" d="M85.402,44.38c0.844-0.723,1.889,0.362,1.206,1.206c-2.733,3.416-5.023,6.992-6.791,11.011
		c-0.482,1.045-2.21,0.281-1.849-0.804C79.374,51.412,81.865,47.353,85.402,44.38z"/>
	<path style="fill:#1D1D1B;" d="M82.629,159.512c0.763,0.603-0.201,1.808-1.005,1.326c-2.21-1.447-3.617-3.416-4.22-5.988
		c-0.281-1.165,1.487-1.648,1.808-0.482C79.776,156.457,80.941,158.185,82.629,159.512z"/>
	<path style="fill:#1D1D1B;" d="M76.32,158.145c0.563,0.281,0.161,1.246-0.442,1.005c-3.657-1.246-5.867-4.782-5.787-8.6
		c0.04-0.884,1.366-0.884,1.326,0C71.417,153.886,73.386,156.658,76.32,158.145z"/>
	<path style="fill:#1D1D1B;" d="M66.997,83.48c5.104,0.442,8.881,4.862,8.198,10.006c-0.12,0.804-1.407,0.603-1.407-0.201
		c0-4.059-2.974-7.716-6.992-8.278C65.912,84.847,66.153,83.4,66.997,83.48z"/>
	<path style="fill:#1D1D1B;" d="M47.225,211.673c0.965-0.201,1.366,1.206,0.402,1.487c-3.054,0.884-7.555-1.326-6.872-4.983
		c0.121-0.482,0.844-0.563,1.045-0.12C42.966,210.145,44.452,212.195,47.225,211.673z"/>
	<path style="fill:#1D1D1B;" d="M18.653,115.388c0.08,3.175,0.161,6.39-0.04,9.524c-0.08,1.085-1.607,1.085-1.688,0
		c-0.201-3.134-0.121-6.349-0.04-9.524C16.925,114.262,18.613,114.262,18.653,115.388z"/>
	<path style="fill:#1D1D1B;" d="M17.93,131.582c0.563,0.884-0.804,1.688-1.406,0.804c-2.773-4.059-4.581-8.56-5.063-13.502
		c-0.08-0.924,1.447-1.085,1.608-0.201C13.992,123.264,15.438,127.564,17.93,131.582z"/>
</g>
<g>
</g>
<g>
</g>
<g>
</g>
<g>
</g>
<g>
</g>
<g>
</g>
<g>
</g>
<g>
</g>
<g>
</g>
<g>
</g>
<g>
</g>
<g>
</g>
<g>
</g>
<g>
</g>
<g>
</g>
</svg>
