<?xml version="1.0" encoding="utf-8"?>
<!-- Generator: Adobe Illustrator 19.2.0, SVG Export Plug-In . SVG Version: 6.00 Build 0)  -->
<svg xmlns="http://www.w3.org/2000/svg" xmlns:xlink="http://www.w3.org/1999/xlink" version="1.1" id="cloudarrowright" x="0px" y="0px" viewBox="0 0 208 210.1371" enable-background="new 0 0 208 210.1371" xml:space="preserve" width="512" height="512">
<g>
	<path fill="#D0E8FF" d="M174.8984,39.6683c-0.8398,0-1.6699,0.0391-2.4883,0.1172c-1.8457,0.2305-3.582-0.9492-4.1719-2.7109   c-3.9824-11.9063-15.543-19.9063-28.7695-19.9063c-16.6309,0-30.1621,12.7852-30.1621,28.5c0,1.0938-0.4473,2.1523-1.2383,2.9102   c-0.7891,0.7539-1.8555,1.168-2.9473,1.1172C93.7617,49.2035,84,58.1722,84,69.4183c0,10.5195,8.3398,19.1836,18.9883,19.7227   c0.0996,0.0078,0.1973,0.0156,0.2969,0.0273h69.8809c0.1523-0.0195,0.3066-0.0273,0.4629-0.0273c0.0605,0,0.1211,0,0.1816,0.0039   c0.3594,0.0156,0.7227,0.0234,1.0879,0.0234c13.8418,0,25.1016-11.1016,25.1016-24.75   C200,50.7699,188.7402,39.6683,174.8984,39.6683z"/>
	<path fill="#1C71DA" d="M174.7285,31.6683c-5.8672-13.5742-19.6621-22.5-35.2598-22.5c-19.6602,0-35.8965,14.293-37.9434,32.6094   C87.2383,43.0433,76,54.9574,76,69.4183c0,14.6016,11.3906,26.6562,26.0312,27.6797c0.2441,0.0469,0.4922,0.0703,0.7441,0.0703   h70.8574c0.1074,0,0.2129-0.0039,0.3184-0.0117c0.3145,0.0078,0.6309,0.0117,0.9473,0.0117c18.252,0,33.1016-14.6914,33.1016-32.75   C208,46.3051,193.0098,31.5863,174.7285,31.6683z M174.8984,89.1683c-0.3652,0-0.7285-0.0078-1.0879-0.0234   c-0.0606-0.0039-0.1211-0.0039-0.1816-0.0039c-0.1562,0-0.3105,0.0078-0.4629,0.0273h-69.8809   c-0.0996-0.0117-0.1973-0.0195-0.2969-0.0273C92.3398,88.6019,84,79.9379,84,69.4183c0-11.2461,9.7617-20.2148,21.1211-19.7227   c1.0918,0.0508,2.1582-0.3633,2.9473-1.1172c0.791-0.7578,1.2383-1.8164,1.2383-2.9102c0-15.7148,13.5312-28.5,30.1621-28.5   c13.2266,0,24.7871,8,28.7695,19.9063c0.5898,1.7617,2.3262,2.9414,4.1719,2.7109c0.8184-0.0781,1.6484-0.1172,2.4883-0.1172   c13.8418,0,25.1016,11.1016,25.1016,24.75C200,78.0668,188.7402,89.1683,174.8984,89.1683z"/>
	<path fill="#1C71DA" d="M98.3438,140.4808L104,146.1371l14.1426-14.1406c0.75-0.75,1.1719-1.7656,1.1719-2.8281   s-0.4219-2.0781-1.1719-2.8281L104,112.1996l-5.6562,5.6562l7.3125,7.3125H0v8h105.6562L98.3438,140.4808z"/>
	<path fill="#1C71DA" d="M172,176.1996l-5.6562,5.6562l7.3125,7.3125H68v8h105.6562l-7.3125,7.3125L172,210.1371l14.1426-14.1406   c0.75-0.75,1.1719-1.7656,1.1719-2.8281s-0.4219-2.0781-1.1719-2.8281L172,176.1996z"/>
	<path fill="#1C71DA" d="M130.3438,172.4808L136,178.1371l14.1426-14.1406c0.75-0.75,1.1719-1.7656,1.1719-2.8281   s-0.4219-2.0781-1.1719-2.8281L136,144.1996l-5.6562,5.6562l7.3125,7.3125H32v8h105.6562L130.3438,172.4808z"/>
</g>
<path fill="#FF5D5D" d="M44.3854,92c-1.0239,0-2.0474-0.3906-2.8286-1.1719c-1.562-1.5615-1.562-4.0947,0-5.6562l14.1421-14.1416  c1.563-1.5625,4.0952-1.5615,5.6572,0s1.562,4.0947,0,5.6562L47.214,90.8281C46.4328,91.6094,45.4088,92,44.3854,92z"/>
<path fill="#FF5D5D" d="M58.5275,92c-1.0239,0-2.0474-0.3906-2.8286-1.1719L41.5568,76.6865c-1.562-1.5615-1.562-4.0947,0-5.6562  c1.5625-1.5625,4.0947-1.5625,5.6572,0l14.1421,14.1416c1.562,1.5615,1.562,4.0947,0,5.6562C60.5749,91.6094,59.5514,92,58.5275,92z  "/>
<path fill="#00D40B" d="M26.3854,28c-7.7197,0-14-6.2803-14-14s6.2803-14,14-14s14,6.2803,14,14S34.1051,28,26.3854,28z M26.3854,8  c-3.3086,0-6,2.6914-6,6s2.6914,6,6,6s6-2.6914,6-6S29.694,8,26.3854,8z"/>
<path fill="#FFC504" d="M175.6989,122.6279c-1.0239,0-2.0474-0.3906-2.8286-1.1719l-11.3135-11.3135  c-1.562-1.5615-1.562-4.0947,0-5.6562l11.3135-11.3145c0.75-0.75,1.7676-1.1719,2.8286-1.1719s2.0781,0.4219,2.8286,1.1719  l11.314,11.3145c0.75,0.75,1.1714,1.7676,1.1714,2.8281s-0.4214,2.0781-1.1719,2.8281l-11.314,11.3135  C177.7462,122.2373,176.7223,122.6279,175.6989,122.6279z M170.0421,107.3145l5.6567,5.6562l5.6572-5.6562l-5.6572-5.6572  L170.0421,107.3145z"/>
</svg>
