<?xml version="1.0" encoding="iso-8859-1"?>
<!-- Generator: Adobe Illustrator 19.0.0, SVG Export Plug-In . SVG Version: 6.00 Build 0)  -->
<svg version="1.1" id="Layer_1" xmlns="http://www.w3.org/2000/svg" xmlns:xlink="http://www.w3.org/1999/xlink" x="0px" y="0px"
	 viewBox="0 0 496.166 496.166" style="enable-background:new 0 0 496.166 496.166;" xml:space="preserve">
<path style="fill:#D0E8EA;" d="M248.079,0C111.074,0,0.004,111.062,0.004,248.083c0,137.005,111.07,248.083,248.075,248.083
	c137.013,0,248.083-111.078,248.083-248.083C496.162,111.062,385.092,0,248.079,0z"/>
<path style="fill:#E8DF3D;" d="M248.087,122.106c-69.578,0-125.977,56.399-125.977,125.98c0,69.569,56.399,125.973,125.977,125.973
	c69.566,0,125.973-56.403,125.973-125.973C374.06,178.506,317.653,122.106,248.087,122.106z"/>
<g style="opacity:0.6;">
	<path style="fill:#FFFFFF;" d="M314.96,180.839c-4.487,0-8.821,0.627-12.972,1.69c-8.825-16.181-25.992-27.167-45.727-27.167
		c-13.178,0-25.174,4.935-34.343,12.999c-9.166-8.064-21.162-12.999-34.339-12.999c-22.584,0-41.752,14.406-48.959,34.52
		c-8.634-6.35-19.256-10.152-30.786-10.152c-28.754,0-52.062,23.304-52.062,52.062c0,24.019,16.295,44.186,38.413,50.184
		c6.006,22.125,26.172,38.421,50.195,38.421c10.86,0,20.936-3.328,29.275-9.013c9.452,9.655,22.607,15.661,37.185,15.661
		c20.599,0,38.348-11.996,46.791-29.348c7.727,4.537,16.701,7.191,26.314,7.191c17.118,0,32.262-8.301,41.749-21.054
		c23.602-4.95,41.328-25.874,41.328-50.941C367.021,204.143,343.714,180.839,314.96,180.839z"/>
</g>
<g style="opacity:0.6;">
	<path style="fill:#FFFFFF;" d="M383.883,253.492c-3.385,0-6.648,0.474-9.777,1.277c-6.645-12.191-19.57-20.461-34.431-20.461
		c-9.93,0-18.958,3.718-25.87,9.792c-6.908-6.074-15.932-9.792-25.855-9.792c-17.007,0-31.443,10.848-36.872,25.992
		c-6.499-4.781-14.501-7.643-23.188-7.643c-21.647,0-39.201,17.55-39.201,39.201c0,18.093,12.268,33.279,28.938,37.801
		c4.514,16.663,19.708,28.935,37.793,28.935c8.171,0,15.764-2.518,22.041-6.794c7.123,7.269,17.03,11.797,28.008,11.797
		c15.508,0,28.873-9.035,35.227-22.102c5.822,3.419,12.589,5.416,19.822,5.416c12.891,0,24.298-6.25,31.44-15.852
		c17.776-3.733,31.122-19.486,31.122-38.367C423.081,271.042,405.526,253.492,383.883,253.492z"/>
</g>
<g>
</g>
<g>
</g>
<g>
</g>
<g>
</g>
<g>
</g>
<g>
</g>
<g>
</g>
<g>
</g>
<g>
</g>
<g>
</g>
<g>
</g>
<g>
</g>
<g>
</g>
<g>
</g>
<g>
</g>
</svg>
